<?xml version="1.0" encoding="UTF-8" standalone="no"?>
<!DOCTYPE svg PUBLIC "-//W3C//DTD SVG 1.1//EN" "http://www.w3.org/Graphics/SVG/1.1/DTD/svg11.dtd">
<svg version="1.1" xmlns="http://www.w3.org/2000/svg" xmlns:xlink="http://www.w3.org/1999/xlink" preserveAspectRatio="xMidYMid meet" viewBox="0 0 640 640" width="640" height="640"><defs><path d="M274.99 358.28L275.48 358.33L275.97 358.39L276.45 358.47L276.51 358.48L276.57 358.49L276.63 358.5L276.69 358.51L276.75 358.53L276.81 358.54L276.86 358.55L276.92 358.56L276.98 358.57L277.04 358.59L277.1 358.6L277.16 358.61L277.22 358.62L277.28 358.64L277.33 358.65L277.39 358.67L277.45 358.68L277.51 358.69L277.57 358.71L277.63 358.72L277.68 358.74L277.74 358.76L278.34 358.93L278.94 359.13L279.53 359.35L280.12 359.6L280.7 359.86L281.28 360.16L281.84 360.47L282.4 360.81L282.95 361.17L283.5 361.56L284.03 361.97L284.55 362.39L285.06 362.84L285.56 363.32L286.04 363.81L286.51 364.33L286.97 364.86L287.42 365.42L287.84 366L288.26 366.6L288.65 367.21L289.03 367.85L289.39 368.51L289.72 369.17L290.03 369.83L290.32 370.51L290.58 371.18L290.82 371.87L291.03 372.55L291.22 373.24L291.39 373.93L291.53 374.63L291.65 375.32L291.75 376.02L291.82 376.71L291.87 377.41L291.9 378.1L291.91 378.79L291.89 379.47L291.85 380.15L291.79 380.83L291.71 381.5L291.6 382.16L291.47 382.82L291.46 382.88L291.45 382.95L291.43 383.01L291.42 383.07L291.4 383.13L291.39 383.2L291.37 383.26L291.36 383.32L291.34 383.38L291.33 383.45L291.31 383.51L291.3 383.57L291.28 383.63L291.26 383.69L291.25 383.76L291.23 383.82L291.21 383.88L291.2 383.94L291.18 384L291.16 384.07L291.14 384.13L291.13 384.19L290.97 384.69L290.81 385.19L290.63 385.68L290.43 386.16L290.22 386.63L290 387.1L289.77 387.56L289.52 388.01L289.26 388.45L288.99 388.89L288.7 389.31L288.41 389.72L288.09 390.13L287.77 390.52L287.43 390.9L287.08 391.27L286.72 391.62L286.34 391.97L285.96 392.3L285.56 392.62L285.14 392.93L284.72 393.22L283.68 393.85L282.61 394.38L281.51 394.81L280.39 395.14L279.26 395.37L278.11 395.51L276.96 395.55L275.8 395.51L274.64 395.37L273.49 395.14L272.35 394.82L271.23 394.42L270.12 393.93L269.04 393.36L267.98 392.7L266.96 391.97L265.98 391.15L265.04 390.26L264.14 389.29L263.29 388.24L262.5 387.12L261.77 385.93L261.11 384.69L260.54 383.42L260.06 382.13L259.66 380.83L259.34 379.52L259.11 378.21L258.96 376.89L258.9 375.58L258.91 374.29L259.01 373L259.18 371.74L259.43 370.5L259.76 369.29L260.17 368.11L260.65 366.98L261.21 365.89L261.84 364.85L262.55 363.86L263.32 362.93L264.17 362.07L265.09 361.28L266.08 360.56L266.52 360.28L266.96 360.02L267.4 359.78L267.85 359.56L268.31 359.36L268.77 359.17L269.23 359L269.7 358.84L270.17 358.71L270.64 358.59L271.12 358.49L271.6 358.41L272.08 358.34L272.56 358.29L273.05 358.25L273.53 358.24L274.02 358.23L274.51 358.25L274.99 358.28ZM272.74 359.72L272.27 359.77L271.79 359.84L271.32 359.93L270.85 360.04L270.38 360.16L269.92 360.3L269.46 360.46L269 360.64L268.55 360.84L268.1 361.05L267.66 361.29L267.23 361.54L266.8 361.82L265.8 362.55L264.87 363.37L264.03 364.26L263.27 365.22L262.58 366.25L261.98 367.33L261.47 368.47L261.03 369.65L260.69 370.88L260.43 372.13L260.26 373.42L260.17 374.72L260.18 376.05L260.27 377.38L260.46 378.72L260.74 380.05L261.12 381.37L261.59 382.68L262.15 383.97L262.82 385.23L263.56 386.44L264.38 387.57L265.25 388.61L266.18 389.57L267.15 390.44L268.17 391.22L269.23 391.92L270.32 392.52L271.44 393.03L272.59 393.44L273.74 393.76L274.91 393.98L276.09 394.1L277.26 394.11L278.43 394.02L279.59 393.83L280.73 393.53L281.85 393.12L282.94 392.6L284 391.97L284.42 391.68L284.83 391.37L285.22 391.05L285.6 390.72L285.97 390.38L286.32 390.02L286.66 389.65L286.99 389.27L287.3 388.87L287.6 388.47L287.89 388.05L288.16 387.63L288.42 387.19L288.66 386.75L288.89 386.29L289.11 385.83L289.31 385.36L289.5 384.88L289.68 384.4L289.84 383.9L289.86 383.84L289.88 383.77L289.9 383.7L289.92 383.64L289.94 383.57L289.95 383.5L289.97 383.44L289.99 383.37L290.01 383.3L290.03 383.23L290.05 383.17L290.06 383.1L290.08 383.03L290.1 382.96L290.11 382.89L290.13 382.83L290.15 382.76L290.16 382.69L290.18 382.62L290.19 382.55L290.33 381.88L290.44 381.2L290.53 380.51L290.59 379.81L290.63 379.11L290.64 378.4L290.62 377.69L290.58 376.98L290.51 376.26L290.42 375.55L290.29 374.83L290.15 374.12L289.97 373.4L289.77 372.69L289.54 371.99L289.29 371.29L289 370.59L288.69 369.9L288.35 369.22L287.98 368.55L287.59 367.89L287.18 367.26L286.75 366.65L286.3 366.06L285.84 365.5L285.36 364.96L284.86 364.45L284.35 363.96L283.83 363.49L283.29 363.05L282.74 362.64L282.18 362.25L281.6 361.89L281.02 361.55L280.43 361.24L279.84 360.96L279.23 360.71L278.62 360.48L278.01 360.28L277.39 360.11L277.32 360.09L277.26 360.07L277.19 360.06L277.13 360.04L277.07 360.03L277 360.01L276.94 360L276.88 359.98L276.81 359.97L276.75 359.96L276.68 359.94L276.62 359.93L276.56 359.92L276.49 359.91L276.43 359.89L276.36 359.88L276.3 359.87L276.24 359.86L276.17 359.85L276.11 359.84L275.63 359.77L275.15 359.72L274.66 359.69L274.18 359.67L273.7 359.67L273.22 359.69L272.74 359.72Z" id="dGMOykupz"></path><clipPath id="clipd3TyhYTkXv"><use xlink:href="#dGMOykupz" opacity="1"></use></clipPath><path d="M276.11 359.84C272.91 359.33 269.64 359.93 266.8 361.82C259.86 366.42 258.07 376.92 262.82 385.23C267.56 393.55 277.06 396.57 284 391.97C286.84 390.08 288.82 387.21 289.84 383.9C285.41 382.72 281.26 379.56 278.55 374.81C275.83 370.05 275.09 364.63 276.11 359.84Z" id="c304ViUYi"></path><clipPath id="clipetAcN55CP"><use xlink:href="#c304ViUYi" opacity="1"></use></clipPath><path d="M276.68 357.3C276.57 357.69 276.37 358.28 276.37 358.28C276.49 358.3 277.46 358.48 277.58 358.51C278.64 355.67 280.56 352.76 283.04 351.04C289.89 346.28 299.39 349.04 304.21 357.18C309.04 365.32 307.39 375.82 300.55 380.57C297.74 382.52 294.5 383.2 291.31 382.78C290.88 382.72 290.45 382.64 290.03 382.55C285.89 381.6 281.96 378.79 279.37 374.43C276.79 370.06 276.06 365.03 276.99 360.56C276.57 360.46 276.15 360.38 275.72 360.33C274.77 365.12 275.58 370.49 278.34 375.15C281.1 379.81 285.27 382.84 289.69 383.9C290.12 384 290.55 384.08 290.98 384.15C294.53 384.69 298.15 383.97 301.27 381.8C308.69 376.65 310.48 365.29 305.25 356.46C300.02 347.64 289.73 344.65 282.31 349.8C279.64 351.66 277.47 354.64 276.68 357.3Z" id="c20nRfcxP"></path><clipPath id="clipa2etjE3wsJ"><use xlink:href="#c20nRfcxP" opacity="1"></use></clipPath><path d="M291.18 382.79C294.38 383.3 297.65 382.7 300.49 380.81C307.43 376.21 309.22 365.71 304.47 357.4C299.73 349.08 290.23 346.06 283.29 350.66C280.45 352.55 278.47 355.42 277.45 358.73C281.88 359.91 286.03 363.07 288.74 367.82C291.46 372.58 292.2 378 291.18 382.79Z" id="d1MhZqBLxr"></path><clipPath id="clipa9uBrlgeO"><use xlink:href="#d1MhZqBLxr" opacity="1"></use></clipPath><path d="M276.75 359.06C275.54 364.03 276.19 369.65 278.97 374.52C281.75 379.4 286.11 382.56 290.77 383.63C291.98 378.67 291.32 373.05 288.54 368.18C285.76 363.3 281.41 360.14 276.75 359.06Z" id="e2sGOZgLbj"></path><clipPath id="clipd4L7gIxePK"><use xlink:href="#e2sGOZgLbj" opacity="1"></use></clipPath><path d="M276.32 359.35L276.31 359.62L276.07 359.78L276.08 359.51L276.32 359.35Z" id="ajvyfo8xJ"></path><path d="M317.5 372.24C317.5 390.98 302.53 406.2 284.09 406.2C265.65 406.2 250.67 390.98 250.67 372.24C250.67 353.49 265.65 338.28 284.09 338.28C302.53 338.28 317.5 353.49 317.5 372.24Z" id="f198LnOTat"></path><path d="M275.89 360.42L276.68 359.9L277.17 360.74L276.38 361.27L275.89 360.42Z" id="deXfOMKiH"></path><path d="M276.45 358.38L276.58 358.61L276.34 358.77L276.45 358.38Z" id="c2p33M5KQ"></path><path d="M276.4 358.3L277.2 357.77L277.67 358.59L276.87 359.12L276.4 358.3Z" id="e1tV6ls040"></path></defs><g><g><g><g></g><use xlink:href="#dGMOykupz" opacity="1" fill="#000000" fill-opacity="0"></use><g clip-path="url(#clipd3TyhYTkXv)"><use xlink:href="#dGMOykupz" opacity="1" fill-opacity="0" stroke="#ffffff" stroke-width="2" stroke-opacity="1"></use></g></g><g><g></g><use xlink:href="#c304ViUYi" opacity="1" fill="#000000" fill-opacity="0"></use><g clip-path="url(#clipetAcN55CP)"><use xlink:href="#c304ViUYi" opacity="1" fill-opacity="0" stroke="#ffffff" stroke-width="2" stroke-opacity="1"></use></g></g><g><g></g><use xlink:href="#c20nRfcxP" opacity="1" fill="#000000" fill-opacity="0"></use><g clip-path="url(#clipa2etjE3wsJ)"><use xlink:href="#c20nRfcxP" opacity="1" fill-opacity="0" stroke="#ffffff" stroke-width="2" stroke-opacity="1"></use></g></g><g><g></g><use xlink:href="#d1MhZqBLxr" opacity="1" fill="#000000" fill-opacity="0"></use><g clip-path="url(#clipa9uBrlgeO)"><use xlink:href="#d1MhZqBLxr" opacity="1" fill-opacity="0" stroke="#ffffff" stroke-width="2" stroke-opacity="1"></use></g></g><g><g></g><use xlink:href="#e2sGOZgLbj" opacity="1" fill="#000000" fill-opacity="0"></use><g clip-path="url(#clipd4L7gIxePK)"><use xlink:href="#e2sGOZgLbj" opacity="1" fill-opacity="0" stroke="#ffffff" stroke-width="2" stroke-opacity="1"></use></g></g><g><use xlink:href="#ajvyfo8xJ" opacity="1" fill="#ffffff" fill-opacity="1"></use><g><use xlink:href="#ajvyfo8xJ" opacity="1" fill-opacity="0" stroke="#ffffff" stroke-width="1" stroke-opacity="1"></use></g></g><g><use xlink:href="#f198LnOTat" opacity="1" fill="#ffffff" fill-opacity="0"></use><g><use xlink:href="#f198LnOTat" opacity="1" fill-opacity="0" stroke="#ffffff" stroke-width="3" stroke-opacity="1"></use></g></g><g><use xlink:href="#deXfOMKiH" opacity="1" fill="#ffffff" fill-opacity="1"></use><g><use xlink:href="#deXfOMKiH" opacity="1" fill-opacity="0" stroke="#ffffff" stroke-width="1" stroke-opacity="1"></use></g></g><g><use xlink:href="#c2p33M5KQ" opacity="1" fill="#ffffff" fill-opacity="1"></use><g><use xlink:href="#c2p33M5KQ" opacity="1" fill-opacity="0" stroke="#ffffff" stroke-width="0.5" stroke-opacity="1"></use></g></g><g><use xlink:href="#e1tV6ls040" opacity="1" fill="#ffffff" fill-opacity="1"></use><g><use xlink:href="#e1tV6ls040" opacity="1" fill-opacity="0" stroke="#ffffff" stroke-width="0.5" stroke-opacity="1"></use></g></g></g></g></svg>